<svg id="Capa_1" enable-background="new 0 0 512 512" height="512" viewBox="0 0 512 512" width="512" xmlns="http://www.w3.org/2000/svg"><g><path d="m512 256c0-141.385-114.615-256-256-256-67.842 0-129.521 26.39-175.33 69.464-49.659 46.694-75.769 112.993-75.769 186.536 0 141.385 109.714 251.978 251.099 251.978 73.556 0 139.867-27 186.562-76.675 43.059-45.807 69.438-107.474 69.438-175.303z" fill="#ff7e92"/><circle cx="256" cy="256" fill="#ffdbde" r="222.968"/><circle cx="256" cy="256" fill="#fff" r="206.452"/><path d="m227.599 227.599c-1.998 1.998-3.74 4.252-5.175 6.713l-67.884 116.372c-2.566 4.399 2.377 9.343 6.777 6.777l116.372-67.884c2.461-1.436 4.715-3.177 6.713-5.175l-15.827-42.703z" fill="#ffdbde"/><path d="m267.21 500.79c-141.385 0-256-114.615-256-256 0-67.841 26.387-129.516 69.46-175.326-49.661 46.694-80.67 112.992-80.67 186.536 0 141.385 114.615 256 256 256 73.545 0 139.868-31.035 186.562-80.697-45.81 43.073-107.511 69.487-175.352 69.487z" fill="#ff5f7a"/><path d="m357.46 161.316c2.566-4.399-2.378-9.343-6.776-6.776l-116.372 67.884c-2.461 1.435-4.715 3.177-6.713 5.175l56.802 56.802c1.998-1.998 3.74-4.253 5.175-6.713z" fill="#ff7e92"/></g></svg>